<svg xmlns="http://www.w3.org/2000/svg" version="1.1" xmlns:xlink="http://www.w3.org/1999/xlink" xmlns:svgjs="http://svgjs.dev/svgjs" width="1440" height="560" preserveAspectRatio="none" viewBox="0 0 1440 560"><g mask="url(&quot;#SvgjsMask1001&quot;)" fill="none"><path d="M 0,97 C 57.6,108.8 172.8,150.6 288,156 C 403.2,161.4 460.8,114.6 576,124 C 691.2,133.4 748.8,201.4 864,203 C 979.2,204.6 1036.8,123.4 1152,132 C 1267.2,140.6 1382.4,223.2 1440,246L1440 560L0 560z" fill="rgba(24, 126, 73, 1)"></path><path d="M 0,547 C 96,514.2 288,402.6 480,383 C 672,363.4 768,463.4 960,449 C 1152,434.6 1344,338.6 1440,311L1440 560L0 560z" fill="rgba(34, 171, 84, 1)"></path></g><defs><mask id="SvgjsMask1001"><rect width="1440" height="560" fill="#ffffff"></rect></mask></defs></svg>